<svg width="160" height="31" viewBox="0 0 160 31" fill="none" xmlns="http://www.w3.org/2000/svg">
<path d="M4.69563 4.1189C6.84981 2.1508 9.7749 1.00204 12.7395 0.85915C13.7542 0.85915 14.7719 0.864944 15.7865 0.856201C15.7347 1.89716 15.7865 2.94096 15.756 3.98186C15.6128 6.30862 14.7139 8.58288 13.1996 10.4081C11.2313 12.8632 8.22095 14.5105 5.0247 14.9363C3.6292 15.152 2.21233 15.015 0.807743 15.0529C0.832103 13.9069 0.755925 12.7582 0.850373 11.6152C1.12463 8.78117 2.52318 6.06662 4.69563 4.1189Z" fill="#81818B"/>
<path d="M16.7261 0.856201C17.8139 0.867893 18.9016 0.850408 19.9924 0.862048C22.7072 1.0457 25.3855 2.04289 27.4298 3.77199C29.6845 5.62343 31.2296 8.27093 31.6255 11.0992C31.7992 12.4112 31.6895 13.7378 31.7567 15.0558C30.8059 15.0529 29.8583 15.05 28.9075 15.0558C26.5708 14.9946 24.2734 14.2715 22.3172 13.0527C21.4153 12.4345 20.489 11.8077 19.8126 10.9505C18.3288 9.36429 17.3203 7.37286 16.9394 5.27357C16.6529 3.81565 16.7687 2.32866 16.7261 0.856201Z" fill="#81818B"/>
<path d="M0.809783 15.8896C1.77568 15.9421 2.74462 15.8459 3.70742 15.948C7.82993 16.0325 11.8306 18.2484 13.9664 21.6219C15.1914 23.5113 15.8495 25.7507 15.7642 27.9751C15.7611 28.7046 15.7733 29.4304 15.752 30.1566C14.2224 30.1124 12.6776 30.2319 11.1633 29.9491C7.79948 29.4072 4.70686 27.4912 2.8451 24.7563C1.43438 22.7678 0.730561 20.339 0.803693 17.9394C0.803693 17.2541 0.803693 16.5719 0.809783 15.8896Z" fill="#81818B"/>
<path d="M26.6084 16.1986C28.266 15.8457 29.9748 15.904 31.6601 15.904L31.7336 15.974C31.6968 17.4989 31.8218 19.0413 31.5021 20.5488C30.8285 23.931 28.4886 26.9515 25.3409 28.6105C23.3817 29.6547 21.1331 30.1676 18.8936 30.1445C18.1776 30.1476 17.4585 30.1329 16.7425 30.1529C16.7425 28.8905 16.6876 27.6225 16.8369 26.3654C17.1843 23.3245 18.9028 20.4934 21.3738 18.5807C22.9034 17.4261 24.7011 16.5892 26.6084 16.1986Z" fill="#81818B"/>
<path d="M44.2417 24.509C44.2417 25.0223 44.0559 25.4565 43.6852 25.812C43.334 26.1477 42.8904 26.3156 42.3544 26.3156C41.8383 26.3156 41.4052 26.1477 41.0545 25.812C40.7038 25.4565 40.5284 25.0223 40.5284 24.509V6.20747C40.5284 5.69413 40.7038 5.26968 41.0545 4.93409C41.4256 4.5787 41.8798 4.401 42.4163 4.401C42.9523 4.401 43.3855 4.5787 43.7157 4.93409C44.0664 5.26968 44.2417 5.69413 44.2417 6.20747V24.509Z" fill="#81818B"/>
<path d="M59.1475 10.4719C59.6836 10.4719 60.1272 10.6496 60.4784 11.005C60.8286 11.3406 61.0039 11.765 61.0039 12.2783V19.8003C61.0039 21.8931 60.3955 23.5514 59.1785 24.7755C57.961 25.9996 56.2075 26.6114 53.917 26.6114C51.6274 26.6114 49.8734 25.9996 48.6565 24.7755C47.46 23.5514 46.8615 21.8931 46.8615 19.8003V12.2783C46.8615 11.765 47.0368 11.3406 47.3875 11.005C47.7382 10.6496 48.1819 10.4719 48.7184 10.4719C49.255 10.4719 49.6981 10.6496 50.0488 11.005C50.4 11.3406 50.5753 11.765 50.5753 12.2783V19.8003C50.5753 21.0046 50.8541 21.9029 51.4106 22.4952C51.9676 23.0678 52.8034 23.354 53.917 23.354C55.0525 23.354 55.8978 23.0678 56.4553 22.4952C57.0118 21.9029 57.2906 21.0046 57.2906 19.8003V12.2783C57.2906 11.765 57.466 11.3406 57.8167 11.005C58.1674 10.6496 58.611 10.4719 59.1475 10.4719Z" fill="#81818B"/>
<path d="M72.1733 10.1758C73.8239 10.1758 75.0409 10.5607 75.8252 11.3307C76.609 12.0809 77.1251 13.0582 77.3724 14.2625L76.8463 13.996L77.0941 13.5222C77.3414 13.068 77.7231 12.5844 78.2392 12.071C78.7547 11.538 79.3737 11.0938 80.0956 10.7384C80.8384 10.3633 81.6637 10.1758 82.5715 10.1758C84.0572 10.1758 85.1812 10.4818 85.9446 11.0938C86.7289 11.7058 87.265 12.5251 87.5537 13.5518C87.843 14.5586 87.9874 15.684 87.9874 16.9278V24.509C87.9874 25.0223 87.812 25.4565 87.4608 25.812C87.1101 26.1477 86.667 26.3156 86.1304 26.3156C85.5944 26.3156 85.1503 26.1477 84.7996 25.812C84.4489 25.4565 84.2735 25.0223 84.2735 24.509V16.9278C84.2735 16.2762 84.1911 15.6939 84.0262 15.1805C83.8609 14.6474 83.5616 14.223 83.1285 13.9071C82.6954 13.5912 82.0764 13.4333 81.2721 13.4333C80.4877 13.4333 79.8173 13.5912 79.2603 13.9071C78.7027 14.223 78.2801 14.6474 77.9914 15.1805C77.7231 15.6939 77.5887 16.2762 77.5887 16.9278V24.509C77.5887 25.0223 77.4133 25.4565 77.0632 25.812C76.7125 26.1477 76.2683 26.3156 75.7323 26.3156C75.1957 26.3156 74.7521 26.1477 74.4019 25.812C74.0507 25.4565 73.8754 25.0223 73.8754 24.509V16.9278C73.8754 16.2762 73.7929 15.6939 73.6276 15.1805C73.4627 14.6474 73.1635 14.223 72.7303 13.9071C72.2972 13.5912 71.6777 13.4333 70.8734 13.4333C70.0896 13.4333 69.4192 13.5912 68.8616 13.9071C68.3051 14.223 67.882 14.6474 67.5932 15.1805C67.3249 15.6939 67.1911 16.2762 67.1911 16.9278V24.509C67.1911 25.0223 67.0157 25.4565 66.665 25.812C66.3138 26.1477 65.8707 26.3156 65.3341 26.3156C64.7976 26.3156 64.3545 26.1477 64.0033 25.812C63.6526 25.4565 63.4772 25.0223 63.4772 24.509V12.2783C63.4772 11.765 63.6526 11.3406 64.0033 11.005C64.3545 10.6496 64.7976 10.4719 65.3341 10.4719C65.8707 10.4719 66.3138 10.6496 66.665 11.005C67.0157 11.3406 67.1911 11.765 67.1911 12.2783V13.5518L66.7264 13.4629C66.9123 13.1273 67.1706 12.7719 67.5003 12.3968C67.8305 12.0019 68.2327 11.6367 68.7073 11.3011C69.1819 10.9655 69.7079 10.6989 70.2854 10.5015C70.8634 10.2843 71.4929 10.1758 72.1733 10.1758Z" fill="#81818B"/>
<path d="M93.9561 24.5089C93.9561 25.0223 93.7807 25.4564 93.4295 25.8119C93.0793 26.1477 92.6357 26.3155 92.0991 26.3155C91.5631 26.3155 91.119 26.1477 90.7683 25.8119C90.4181 25.4564 90.2427 25.0223 90.2427 24.5089V12.2783C90.2427 11.765 90.4181 11.3405 90.7683 11.0049C91.119 10.6495 91.5631 10.4719 92.0991 10.4719C92.6357 10.4719 93.0793 10.6495 93.4295 11.0049C93.7807 11.3405 93.9561 11.765 93.9561 12.2783V24.5089ZM92.0682 8.54691C91.3668 8.54691 90.8717 8.43837 90.5824 8.22117C90.2942 8.00402 90.1498 7.61903 90.1498 7.06624V6.50355C90.1498 5.93106 90.3047 5.54602 90.6134 5.34862C90.9436 5.13143 91.4392 5.02283 92.0991 5.02283C92.8215 5.02283 93.3271 5.13143 93.6153 5.34862C93.9046 5.56577 94.049 5.95076 94.049 6.50355V7.06624C94.049 7.63878 93.8941 8.03362 93.5844 8.25077C93.2757 8.44821 92.7696 8.54691 92.0682 8.54691Z" fill="#81818B"/>
<path d="M105.076 10.1758C106.603 10.1758 107.758 10.4818 108.542 11.0938C109.347 11.7058 109.893 12.5251 110.182 13.5518C110.492 14.5586 110.646 15.684 110.646 16.9278V24.509C110.646 25.0223 110.471 25.4565 110.12 25.812C109.77 26.1477 109.326 26.3156 108.789 26.3156C108.253 26.3156 107.81 26.1477 107.459 25.812C107.108 25.4565 106.933 25.0223 106.933 24.509V16.9278C106.933 16.2762 106.84 15.6939 106.655 15.1805C106.489 14.6474 106.18 14.223 105.726 13.9071C105.272 13.5912 104.622 13.4333 103.776 13.4333C102.951 13.4333 102.25 13.5912 101.672 13.9071C101.115 14.223 100.682 14.6474 100.372 15.1805C100.083 15.6939 99.9385 16.2762 99.9385 16.9278V24.509C99.9385 25.0223 99.7636 25.4565 99.4129 25.812C99.0622 26.1477 98.6181 26.3156 98.0821 26.3156C97.5455 26.3156 97.1019 26.1477 96.7517 25.812C96.4005 25.4565 96.2251 25.0223 96.2251 24.509V12.2783C96.2251 11.765 96.4005 11.3406 96.7517 11.005C97.1019 10.6496 97.5455 10.4719 98.0821 10.4719C98.6181 10.4719 99.0622 10.6496 99.4129 11.005C99.7636 11.3406 99.9385 11.765 99.9385 12.2783V13.5518L99.4749 13.4629C99.6607 13.1273 99.9285 12.7719 100.279 12.3968C100.63 12.0019 101.043 11.6367 101.517 11.3011C101.992 10.9655 102.528 10.6989 103.126 10.5015C103.725 10.2843 104.375 10.1758 105.076 10.1758Z" fill="#81818B"/>
<path d="M129.02 18.4084C129.02 20.0273 128.638 21.4587 127.875 22.7025C127.132 23.9266 126.121 24.8841 124.842 25.575C123.583 26.2662 122.17 26.6114 120.602 26.6114C119.034 26.6114 117.61 26.2662 116.332 25.575C115.073 24.8841 114.063 23.9266 113.299 22.7025C112.556 21.4587 112.185 20.0273 112.185 18.4084C112.185 16.7896 112.556 15.3681 113.299 14.144C114.063 12.9002 115.073 11.9328 116.332 11.2419C117.61 10.5311 119.034 10.1758 120.602 10.1758C122.17 10.1758 123.583 10.5311 124.842 11.2419C126.121 11.9328 127.132 12.9002 127.875 14.144C128.638 15.3681 129.02 16.7896 129.02 18.4084ZM125.306 18.4084C125.306 17.4016 125.09 16.5329 124.656 15.8024C124.243 15.0522 123.676 14.4698 122.954 14.0552C122.253 13.6406 121.469 13.4333 120.602 13.4333C119.736 13.4333 118.941 13.6406 118.219 14.0552C117.518 14.4698 116.95 15.0522 116.517 15.8024C116.105 16.5329 115.898 17.4016 115.898 18.4084C115.898 19.3956 116.105 20.2642 116.517 21.0145C116.95 21.745 117.518 22.3175 118.219 22.7321C118.941 23.1467 119.736 23.354 120.602 23.354C121.469 23.354 122.253 23.1467 122.954 22.7321C123.676 22.3175 124.243 21.745 124.656 21.0145C125.09 20.2642 125.306 19.3956 125.306 18.4084Z" fill="#81818B"/>
<path d="M142.861 10.4719C143.397 10.4719 143.841 10.6496 144.192 11.005C144.542 11.3406 144.718 11.765 144.718 12.2783V19.8003C144.718 21.8931 144.109 23.5514 142.892 24.7755C141.674 25.9996 139.921 26.6114 137.631 26.6114C135.341 26.6114 133.587 25.9996 132.37 24.7755C131.173 23.5514 130.575 21.8931 130.575 19.8003V12.2783C130.575 11.765 130.75 11.3406 131.101 11.005C131.452 10.6496 131.895 10.4719 132.432 10.4719C132.968 10.4719 133.412 10.6496 133.763 11.005C134.113 11.3406 134.289 11.765 134.289 12.2783V19.8003C134.289 21.0046 134.567 21.9029 135.124 22.4952C135.681 23.0678 136.517 23.354 137.631 23.354C138.765 23.354 139.612 23.0678 140.168 22.4952C140.726 21.9029 141.004 21.0046 141.004 19.8003V12.2783C141.004 11.765 141.18 11.3406 141.53 11.005C141.881 10.6496 142.325 10.4719 142.861 10.4719Z" fill="#81818B"/>
<path d="M146.231 23.8575C146.025 23.5811 145.932 23.2257 145.953 22.7913C145.974 22.357 146.242 21.9819 146.758 21.666C147.088 21.4686 147.438 21.3896 147.81 21.4291C148.181 21.4489 148.542 21.6265 148.893 21.9622C149.492 22.5346 150.121 22.9789 150.781 23.2948C151.441 23.6106 152.266 23.7686 153.256 23.7686C153.566 23.7488 153.906 23.7094 154.278 23.6501C154.649 23.5712 154.969 23.4132 155.237 23.1763C155.525 22.9197 155.67 22.5346 155.67 22.0214C155.67 21.5871 155.515 21.2415 155.206 20.9849C154.897 20.7282 154.484 20.5111 153.968 20.3334C153.473 20.1557 152.916 19.9879 152.297 19.8299C151.657 19.6523 150.997 19.4549 150.316 19.2377C149.656 19.0205 149.047 18.7441 148.49 18.4084C147.934 18.0531 147.48 17.5891 147.129 17.0166C146.778 16.4441 146.603 15.7234 146.603 14.8548C146.603 13.8676 146.891 13.0286 147.469 12.3376C148.047 11.6466 148.79 11.1136 149.697 10.7384C150.626 10.3633 151.595 10.1758 152.606 10.1758C153.246 10.1758 153.916 10.2547 154.618 10.4127C155.319 10.5509 155.99 10.7878 156.63 11.1234C157.269 11.4393 157.806 11.8637 158.239 12.3968C158.465 12.6929 158.6 13.0483 158.641 13.4629C158.682 13.8775 158.486 14.2526 158.053 14.5882C157.744 14.8251 157.383 14.9337 156.97 14.914C156.558 14.8745 156.217 14.7363 155.949 14.4994C155.598 14.0651 155.124 13.7196 154.525 13.4629C153.947 13.2063 153.277 13.0779 152.514 13.0779C152.204 13.0779 151.864 13.1174 151.492 13.1964C151.142 13.2556 150.832 13.4037 150.564 13.6406C150.296 13.8578 150.162 14.2132 150.162 14.7067C150.162 15.1608 150.316 15.526 150.626 15.8024C150.935 16.0591 151.348 16.2762 151.864 16.454C152.4 16.6119 152.968 16.7699 153.566 16.9278C154.185 17.0857 154.814 17.2732 155.454 17.4904C156.094 17.7076 156.681 17.9938 157.218 18.3492C157.754 18.7046 158.187 19.1686 158.517 19.7411C158.848 20.2939 159.013 21.0046 159.013 21.8733C159.013 22.8802 158.703 23.739 158.084 24.4497C157.465 25.1605 156.691 25.7033 155.763 26.0786C154.835 26.4341 153.885 26.6114 152.916 26.6114C151.699 26.6114 150.482 26.4143 149.264 26.0193C148.047 25.6046 147.036 24.8841 146.231 23.8575Z" fill="#81818B"/>
</svg>
